<?xml version="1.0" encoding="utf-8"?>
<!-- Generator: Adobe Illustrator 16.0.0, SVG Export Plug-In . SVG Version: 6.00 Build 0)  -->
<!DOCTYPE svg PUBLIC "-//W3C//DTD SVG 1.1//EN" "http://www.w3.org/Graphics/SVG/1.1/DTD/svg11.dtd">
<svg version="1.1" id="Layer_1" xmlns="http://www.w3.org/2000/svg" xmlns:xlink="http://www.w3.org/1999/xlink" x="0px" y="0px"
	 width="73.777px" height="72px" viewBox="0 0 73.777 72" enable-background="new 0 0 73.777 72" xml:space="preserve">
<g>
	<circle fill="#00A7A6" cx="37.402" cy="36.692" r="26.677"/>
	<rect x="20.403" y="21.793" fill="none" width="34" height="30.167"/>
	<g enable-background="new    ">
		<path fill="#FFFFFF" d="M36.737,26.978l-1.44,2.34c-0.192,0.288-0.42,0.433-0.684,0.433s-0.486-0.108-0.666-0.324
			c-0.18-0.216-0.27-0.456-0.27-0.72c0-0.168,0.06-0.36,0.18-0.576c0.12-0.216,0.24-0.384,0.36-0.504l2.952-4.176
			c0.12-0.145,0.24-0.271,0.36-0.379c0.12-0.107,0.3-0.161,0.54-0.161c0.264,0,0.504,0.078,0.721,0.233
			c0.215,0.156,0.323,0.378,0.323,0.666v24.517c0,0.312-0.126,0.546-0.378,0.701c-0.252,0.157-0.521,0.234-0.811,0.234
			c-0.312,0-0.588-0.077-0.827-0.234c-0.24-0.155-0.36-0.39-0.36-0.701V26.978z"/>
	</g>
</g>
</svg>
