<?xml version="1.0" encoding="utf-8"?>
<!-- Generator: Adobe Illustrator 16.0.0, SVG Export Plug-In . SVG Version: 6.00 Build 0)  -->
<!DOCTYPE svg PUBLIC "-//W3C//DTD SVG 1.1//EN" "http://www.w3.org/Graphics/SVG/1.1/DTD/svg11.dtd">
<svg version="1.1" id="Layer_1" xmlns="http://www.w3.org/2000/svg" xmlns:xlink="http://www.w3.org/1999/xlink" x="0px" y="0px"
	 width="25.76px" height="24.473px" viewBox="-0.628 1.319 25.76 24.473" enable-background="new -0.628 1.319 25.76 24.473"
	 xml:space="preserve">
<g>
	<g>
		<path fill="#F15D22" d="M24.01,9.662L16.917,8.99c-0.447-0.043-0.834-0.325-1.015-0.754l-2.543-6.154
			c-0.405-1.02-1.851-1.02-2.254,0L8.582,8.237C8.423,8.665,8.014,8.948,7.565,8.99L0.472,9.662
			c-1.058,0.102-1.483,1.425-0.691,2.132l5.348,4.696c0.347,0.309,0.487,0.752,0.386,1.199L3.91,24.277
			c-0.248,1.037,0.873,1.889,1.81,1.342l5.914-3.479c0.385-0.225,0.852-0.225,1.24,0l5.913,3.479
			c0.935,0.545,2.055-0.285,1.812-1.342l-1.589-6.588c-0.101-0.447,0.041-0.893,0.388-1.199l5.346-4.696
			C25.515,11.087,25.067,9.762,24.01,9.662z"/>
	</g>
</g>
</svg>
