<?xml version="1.0" encoding="utf-8"?>
<!-- Generator: Adobe Illustrator 16.0.0, SVG Export Plug-In . SVG Version: 6.00 Build 0)  -->
<!DOCTYPE svg PUBLIC "-//W3C//DTD SVG 1.1//EN" "http://www.w3.org/Graphics/SVG/1.1/DTD/svg11.dtd">
<svg version="1.1" id="Layer_1" xmlns="http://www.w3.org/2000/svg" xmlns:xlink="http://www.w3.org/1999/xlink" x="0px" y="0px"
	 width="25.76px" height="24.473px" viewBox="-0.628 1.319 25.76 24.473" enable-background="new -0.628 1.319 25.76 24.473"
	 xml:space="preserve">
<g opacity="0.3">
	<g>
		<path fill="#414142" d="M24.01,9.664l-7.092-0.672c-0.449-0.043-0.836-0.325-1.017-0.754l-2.543-6.154
			c-0.405-1.02-1.851-1.02-2.255,0L8.58,8.238C8.422,8.667,8.012,8.949,7.564,8.992L0.472,9.664
			c-1.058,0.102-1.484,1.425-0.69,2.132l5.346,4.696c0.346,0.309,0.487,0.752,0.385,1.199l-1.604,6.588
			c-0.246,1.037,0.872,1.889,1.808,1.342l5.916-3.479c0.385-0.226,0.854-0.226,1.24,0l5.913,3.479
			c0.936,0.545,2.054-0.285,1.811-1.342l-1.588-6.588c-0.101-0.447,0.041-0.894,0.388-1.199l5.348-4.696
			C25.515,11.089,25.068,9.763,24.01,9.664z"/>
	</g>
</g>
</svg>
