<?xml version="1.0" encoding="utf-8"?>
<!-- Generator: Adobe Illustrator 16.0.0, SVG Export Plug-In . SVG Version: 6.00 Build 0)  -->
<!DOCTYPE svg PUBLIC "-//W3C//DTD SVG 1.1//EN" "http://www.w3.org/Graphics/SVG/1.1/DTD/svg11.dtd">
<svg version="1.1" id="Layer_1" xmlns="http://www.w3.org/2000/svg" xmlns:xlink="http://www.w3.org/1999/xlink" x="0px" y="0px"
	 width="74.57px" height="69.531px" viewBox="0 0 74.57 69.531" enable-background="new 0 0 74.57 69.531" xml:space="preserve">
<circle fill="#00A7A6" cx="35.798" cy="35.777" r="26.677"/>
<rect x="18.798" y="20.878" fill="none" width="34" height="30.166"/>
<g enable-background="new    ">
	<path fill="#FFFFFF" d="M35.456,46.365c1.68,0,2.964-0.432,3.853-1.296c0.887-0.863,1.332-2.231,1.332-4.104v-0.685
		c0-1.655-0.463-2.867-1.387-3.636c-0.924-0.768-2.166-1.151-3.726-1.151c-0.336,0-0.576-0.103-0.72-0.307
		c-0.144-0.203-0.216-0.438-0.216-0.702c0-0.264,0.066-0.504,0.198-0.72s0.366-0.324,0.702-0.324c1.44,0,2.55-0.323,3.33-0.972
		c0.779-0.648,1.17-1.859,1.17-3.636c0-1.584-0.348-2.754-1.044-3.511c-0.696-0.756-1.8-1.134-3.312-1.134
		c-0.936,0-1.705,0.126-2.304,0.378c-0.6,0.252-1.074,0.57-1.422,0.954c-0.348,0.385-0.582,0.805-0.702,1.26
		c-0.12,0.457-0.18,0.877-0.18,1.261c0,0.769-0.384,1.151-1.152,1.151c-0.48,0-0.805-0.096-0.972-0.288
		c-0.168-0.191-0.252-0.552-0.252-1.079c0-0.505,0.102-1.086,0.306-1.746c0.204-0.66,0.564-1.29,1.08-1.891
		c0.516-0.6,1.23-1.109,2.142-1.529c0.912-0.42,2.088-0.631,3.528-0.631c0.96,0,1.848,0.114,2.664,0.343
		c0.815,0.228,1.513,0.594,2.089,1.098c0.575,0.504,1.025,1.158,1.35,1.962c0.324,0.805,0.486,1.782,0.486,2.934
		c0,1.656-0.283,2.982-0.847,3.979s-1.267,1.698-2.106,2.105c1.08,0.433,1.963,1.111,2.646,2.034
		c0.684,0.925,1.025,2.19,1.025,3.798v0.685c0,1.368-0.197,2.538-0.594,3.51c-0.396,0.972-0.93,1.759-1.602,2.358
		s-1.471,1.038-2.395,1.313s-1.902,0.414-2.934,0.414c-1.272,0-2.376-0.186-3.312-0.558s-1.71-0.847-2.322-1.422
		c-0.612-0.576-1.068-1.212-1.368-1.908c-0.3-0.696-0.45-1.38-0.45-2.052c0-0.504,0.084-0.84,0.252-1.009
		c0.168-0.167,0.456-0.252,0.864-0.252c0.48,0,0.804,0.091,0.972,0.271c0.167,0.18,0.252,0.426,0.252,0.738
		c0,0.384,0.078,0.81,0.234,1.277c0.156,0.468,0.426,0.9,0.81,1.296c0.383,0.396,0.906,0.732,1.566,1.009
		C33.65,46.227,34.471,46.365,35.456,46.365z"/>
</g>
</svg>
