<?xml version="1.0" encoding="utf-8"?>
<!-- Generator: Adobe Illustrator 16.0.0, SVG Export Plug-In . SVG Version: 6.00 Build 0)  -->
<!DOCTYPE svg PUBLIC "-//W3C//DTD SVG 1.1//EN" "http://www.w3.org/Graphics/SVG/1.1/DTD/svg11.dtd">
<svg version="1.1" id="Layer_1" xmlns="http://www.w3.org/2000/svg" xmlns:xlink="http://www.w3.org/1999/xlink" x="0px" y="0px"
	 width="74.57px" height="69.531px" viewBox="0 0 74.57 69.531" enable-background="new 0 0 74.57 69.531" xml:space="preserve">
<circle fill="#00A7A6" cx="35.798" cy="35.777" r="26.677"/>
<rect x="18.798" y="20.878" fill="none" width="34" height="30.166"/>
<g enable-background="new    ">
	<path fill="#FFFFFF" d="M29.084,28.005c0-0.864,0.174-1.662,0.522-2.395c0.348-0.731,0.828-1.361,1.44-1.89
		c0.612-0.527,1.326-0.941,2.142-1.242c0.816-0.3,1.704-0.45,2.664-0.45c1.032,0,1.986,0.181,2.862,0.54
		c0.876,0.36,1.632,0.847,2.269,1.458c0.635,0.612,1.134,1.345,1.494,2.196c0.359,0.853,0.539,1.759,0.539,2.718
		c0,1.296-0.3,2.454-0.899,3.475c-0.601,1.021-1.345,1.95-2.231,2.79c-0.889,0.84-1.861,1.62-2.917,2.34
		c-1.057,0.72-2.029,1.416-2.916,2.088c-0.888,0.672-1.633,1.356-2.232,2.052c-0.6,0.696-0.9,1.44-0.9,2.232v2.231h11.484
		c0.239,0,0.443,0.108,0.611,0.324s0.252,0.468,0.252,0.756s-0.084,0.547-0.252,0.774c-0.168,0.229-0.372,0.342-0.611,0.342H29.588
		c-0.24,0-0.486-0.084-0.738-0.252s-0.378-0.396-0.378-0.684v-3.492c0-0.984,0.3-1.896,0.9-2.736c0.6-0.84,1.35-1.638,2.25-2.394
		c0.9-0.757,1.877-1.494,2.934-2.215c1.056-0.72,2.034-1.463,2.934-2.231c0.9-0.768,1.649-1.584,2.25-2.448
		c0.6-0.864,0.9-1.823,0.9-2.88c0-0.576-0.097-1.146-0.289-1.71c-0.191-0.563-0.492-1.067-0.899-1.512
		c-0.409-0.444-0.918-0.811-1.53-1.099c-0.612-0.288-1.326-0.432-2.142-0.432c-1.249,0-2.286,0.349-3.114,1.044
		c-0.828,0.696-1.242,1.764-1.242,3.204c0,0.24-0.108,0.462-0.324,0.666s-0.528,0.306-0.936,0.306c-0.36,0-0.63-0.107-0.81-0.324
		C29.174,28.941,29.084,28.557,29.084,28.005z"/>
</g>
</svg>
